<?xml version="1.0" encoding="iso-8859-1"?>
<!-- Generator: Adobe Illustrator 19.0.0, SVG Export Plug-In . SVG Version: 6.00 Build 0)  -->
<svg xmlns="http://www.w3.org/2000/svg" xmlns:xlink="http://www.w3.org/1999/xlink" version="1.1" id="Layer_1" x="0px" y="0px" viewBox="0 0 290 290" style="enable-background:new 0 0 290 290;" xml:space="preserve" width="512px" height="512px">
<g>
	<path d="M255,110c-19.299,0-35,15.701-35,35s15.701,35,35,35s35-15.701,35-35S274.299,110,255,110z" fill="#2e2e2e"/>
	<path d="M35,110c-19.299,0-35,15.701-35,35s15.701,35,35,35s35-15.701,35-35S54.299,110,35,110z" fill="#2e2e2e"/>
	<path d="M145,110c-19.299,0-35,15.701-35,35s15.701,35,35,35s35-15.701,35-35S164.299,110,145,110z" fill="#2e2e2e"/>
</g>
<g>
</g>
<g>
</g>
<g>
</g>
<g>
</g>
<g>
</g>
<g>
</g>
<g>
</g>
<g>
</g>
<g>
</g>
<g>
</g>
<g>
</g>
<g>
</g>
<g>
</g>
<g>
</g>
<g>
</g>
</svg>
